<svg xmlns="http://www.w3.org/2000/svg" viewBox="0 0 120 108" fill="#C27B5C">
  <!-- Top piece -->
  <path d="M42 2 C44 0, 76 0, 78 2 L84 28 C85 31, 83 34, 80 35 L60 42 L40 35 C37 34, 35 31, 36 28 Z"/>
  <!-- Middle left -->
  <path d="M10 30 C12 27, 16 26, 19 27 L38 31 C41 32, 42 35, 42 38 L38 60 C37 63, 34 64, 31 63 L12 56 C9 55, 7 52, 6 49 L4 36 C3 33, 5 30, 8 29 Z"/>
  <!-- Middle right -->
  <path d="M82 31 L101 27 C104 26, 108 27, 110 30 L112 29 C115 30, 117 33, 116 36 L114 49 C113 52, 111 55, 108 56 L89 63 C86 64, 83 63, 82 60 L78 38 C78 35, 79 32, 82 31 Z"/>
  <!-- Bottom left -->
  <path d="M-2 58 C0 55, 4 53, 7 54 L26 60 C29 61, 30 64, 30 67 L28 84 C27 87, 24 89, 21 88 L4 82 C1 81, -1 78, -2 75 Z"/>
  <!-- Bottom right -->
  <path d="M94 60 L113 54 C116 53, 120 55, 122 58 L122 75 C121 78, 119 81, 116 82 L99 88 C96 89, 93 87, 92 84 L90 67 C90 64, 91 61, 94 60 Z"/>
</svg>
